<?xml version='1.0' encoding='UTF-8' ?>
<!DOCTYPE svg PUBLIC "-//W3C//DTD SVG 1.1//EN" "http://www.w3.org/Graphics/SVG/1.1/DTD/svg11.dtd" [ 
<!ATTLIST svg 
                       xmlns:dsy CDATA #FIXED "http://www.3ds.com/print"  
                       dsy:text-version CDATA #IMPLIED > 

                       <!ATTLIST text 
                       xmlns:dsy CDATA #FIXED "http://www.3ds.com/print" 
                       dsy:text-version CDATA #IMPLIED > 
                        ]>

<svg style = "background : rgb(255,255,255)" xmlns = "http://www.w3.org/2000/svg" xmlns:xlink = "http://www.w3.org/1999/xlink" xmlns:dsy = "http://www.3ds.com/print" dsy:text-version = "21000" width = "229mm" height = "162mm" viewBox = "0 0 229 162" version = "1.1"><title>Sheet.1</title><g stroke = "rgb(0, 0, 0)" stroke-width = "0.35" stroke-linecap = "butt" stroke-linejoin = "miter" fill = "none"><path d = "M 81.1895 62.3206 L 82.8481 62.2403"/><path d = "M 82.8481 62.2403 L 84.5154 62.1611"/><path d = "M 84.5154 62.1611 L 86.1876 62.0813"/><path d = "M 86.1876 62.0813 L 87.8609 62.0014"/><path d = "M 87.8609 62.0014 L 89.5326 61.9288"/><path d = "M 89.5326 61.9288 L 91.2003 61.8676"/><path d = "M 91.2003 61.8676 L 92.8624 61.8146"/><path d = "M 92.8624 61.8146 L 94.5175 61.7715"/><path d = "M 94.5175 61.7715 L 96.165 61.7378"/><path d = "M 96.165 61.7378 L 97.8056 61.7121"/><path d = "M 97.8056 61.7121 L 99.4408 61.7039"/><path d = "M 99.4408 61.7039 L 101.072 61.7039"/><path d = "M 101.072 61.7039 L 102.7 61.7104"/><path d = "M 102.7 61.7104 L 103.934 61.7251"/><path d = "M 103.934 61.7251 L 104.325 61.7319"/><path d = "M 104.325 61.7319 L 105.948 61.7705"/><path d = "M 105.948 61.7705 L 107.569 61.8198"/><path d = "M 107.569 61.8198 L 109.189 61.8755"/><path d = "M 109.189 61.8755 L 110.81 61.9404"/><path d = "M 110.81 61.9404 L 112.432 62.0168"/><path d = "M 112.432 62.0168 L 114.057 62.1121"/><path d = "M 114.057 62.1121 L 115.686 62.2188"/><path d = "M 115.686 62.2188 L 117.322 62.3293"/><path d = "M 117.322 62.3293 L 118.967 62.4466"/><path d = "M 118.967 62.4466 L 120.624 62.5741"/><path d = "M 120.624 62.5741 L 122.301 62.7101"/><path d = "M 122.301 62.7101 L 124.004 62.8572"/><path d = "M 124.004 62.8572 L 125.739 63.0079"/><path d = "M 125.73895 63.007462 A 98.717468 98.717468 0 0 0 127.50108 63.155426"/><path d = "M 127.501 63.1551 L 129.471 63.2786"/><path d = "M 129.471 63.2786 L 130.17 63.3228 L 130.508 63.3393 L 130.767 63.346 L 130.89 63.3459 L 131.064 63.338 L 131.151 63.3264 L 131.188 63.3176 L 131.227 63.2996 L 131.238 63.2881 L 131.241 63.2787"/><path d = "M 131.241 63.2787 L 131.24 63.2682 L 131.224 63.2422 L 131.204 63.2238 L 131.149 63.1861 L 131.087 63.1514 L 130.949 63.0847 L 130.804 63.0216 L 130.483 62.8927 L 130.032 62.7191 L 129.579 62.5433"/><path d = "M 129.579 62.5433 L 129.182 62.3804 L 128.927 62.2717 L 128.438 62.0583 L 127.906 61.8306 L 127.753 61.7688"/><path d = "M 127.7534 61.767784 A 28.199036 28.199036 0 0 0 126.07626 61.184174"/><path d = "M 126.077 61.1827 L 124.417 60.6378"/><path d = "M 124.41679 60.637718 A 113.43024 113.43024 0 0 0 122.77544 60.122894"/><path d = "M 122.775 60.1229 L 121.148 59.6355"/><path d = "M 121.148 59.6355 L 119.529 59.1731"/><path d = "M 119.52898 59.173172 A 90.195679 90.195679 0 0 0 117.91344 58.738762"/><path d = "M 117.91341 58.738739 A 88.485352 88.485352 0 0 0 116.297 58.33873"/><path d = "M 116.297 58.3387 L 114.68 57.9636"/><path d = "M 114.68 57.9636 L 113.063 57.6021"/><path d = "M 113.063 57.6021 L 111.446 57.2553"/><path d = "M 111.44572 57.255409 A 102.28589 102.28589 0 0 0 109.82693 56.929047"/><path d = "M 109.82691 56.929047 A 81.456635 81.456635 0 0 0 108.2066 56.634567"/><path d = "M 108.20657 56.634537 A 94.151611 94.151611 0 0 0 106.58743 56.372238"/><path d = "M 106.587 56.3723 L 104.972 56.1367"/><path d = "M 104.972 56.1367 L 103.368 55.926"/><path d = "M 103.368 55.926 L 103.362 55.9253"/><path d = "M 103.362 55.9253 L 101.754 55.7309"/><path d = "M 101.754 55.7309 L 100.147 55.5428"/><path d = "M 100.147 55.5428 L 98.5397 55.363"/><path d = "M 98.5397 55.363 L 96.9306 55.1958"/><path d = "M 96.930527 55.19577 A 99.431763 99.431763 0 0 0 95.319702 55.049828"/><path d = "M 95.319748 55.049927 A 83.319214 83.319214 0 0 0 93.707771 54.933487"/><path d = "M 93.707748 54.933502 A 71.908295 71.908295 0 0 0 92.095139 54.850372"/><path d = "M 92.095215 54.850327 A 81.679413 81.679413 0 0 0 90.482315 54.803528"/><path d = "M 90.482277 54.803474 A 102.07532 102.07532 0 0 0 88.870262 54.783333"/><path d = "M 88.87027 54.783417 A 83.136017 83.136017 0 0 0 87.260284 54.791321"/><path d = "M 87.260223 54.791458 A 55.775726 55.775726 0 0 0 85.65419 54.836517"/><path d = "M 85.654182 54.83667 A 41.683563 41.683563 0 0 0 84.057281 54.936546"/><path d = "M 84.057343 54.936577 A 39.350586 39.350586 0 0 0 82.477386 55.099022"/><path d = "M 82.477356 55.099091 A 38.777344 38.777344 0 0 0 80.92392 55.322128"/><path d = "M 80.923927 55.322105 A 37.908539 37.908539 0 0 0 79.403503 55.604256"/><path d = "M 79.403564 55.604439 A 30.303955 30.303955 0 0 0 77.926308 55.945351"/><path d = "M 77.926254 55.945404 A 28.88559 28.88559 0 0 0 76.523384 56.350304"/><path d = "M 76.523376 56.350174 A 33.415131 33.415131 0 0 0 75.194916 56.797638"/><path d = "M 75.194931 56.797638 A 34.297272 34.297272 0 0 0 73.857498 57.312683"/><path d = "M 73.857445 57.312622 A 37.297363 37.297363 0 0 0 72.438591 57.926483"/><path d = "M 72.438606 57.926514 A 35.020813 35.020813 0 0 0 71.555405 58.344879"/><path d = "M 71.5554 58.3449 L 70.9405 58.6574"/><path d = "M 70.940109 58.656708 A 19.698822 19.698822 0 0 0 69.353279 59.601357"/><path d = "M 69.3524 59.6 L 68.8061 59.9398 L 68.2476 60.2752 L 68.0139 60.42 L 67.9021 60.4938 L 67.7455 60.6094 L 67.6777 60.6683 L 67.6169 60.73"/><path d = "M 67.6169 60.73 L 67.5652 60.7949 L 67.5255 60.8638 L 67.5067 60.9125 L 67.4952 60.9628 L 67.4913 61.0172 L 67.4959 61.0722 L 67.5108 61.1336 L 67.535 61.1942 L 67.5841 61.2793 L 67.6468 61.3603 L 67.7138 61.4309"/><path d = "M 67.7138 61.4309 L 67.7997 61.508 L 67.8934 61.5799 L 67.9897 61.6442 L 68.0905 61.7036 L 68.2744 61.7957 L 68.4653 61.8734 L 68.6606 61.9376 L 68.8089 61.9775 L 68.9582 62.0109 L 69.2379 62.0587 L 69.4229 62.0819 L 69.7855 62.1162"/><path d = "M 71.486824 62.313843 A 26.164398 26.164398 0 0 0 69.785515 62.115845"/><path d = "M 71.4871 62.312 L 71.9693 62.3647"/><path d = "M 71.96933 62.365005 A 30.064453 30.064453 0 0 0 73.095184 62.446037"/><path d = "M 73.095192 62.446091 A 49.911041 49.911041 0 0 0 74.692184 62.520096"/><path d = "M 74.692154 62.519905 A 38.42392 38.42392 0 0 0 76.295616 62.526398"/><path d = "M 76.295677 62.526711 A 64.592712 64.592712 0 0 0 77.911797 62.480331"/><path d = "M 77.9118 62.4804 L 79.5432 62.4044"/><path d = "M 79.5432 62.4044 L 81.1895 62.3206"/></g></svg>
